<svg xmlns="http://www.w3.org/2000/svg" xmlns:xlink="http://www.w3.org/1999/xlink" width="500" zoomAndPan="magnify" viewBox="0 0 375 374.999991" height="500" preserveAspectRatio="xMidYMid meet" version="1.0"><defs><clipPath id="ae24e48b23"><path d="M 69.703125 187 L 305.203125 187 L 305.203125 292.339844 L 69.703125 292.339844 Z M 69.703125 187 " clip-rule="nonzero"/></clipPath><clipPath id="9ab5485844"><path d="M 69.703125 82.339844 L 305.203125 82.339844 L 305.203125 274 L 69.703125 274 Z M 69.703125 82.339844 " clip-rule="nonzero"/></clipPath></defs><g clip-path="url(#ae24e48b23)"><path fill="#3e4780" d="M 305.175781 187.917969 C 305.175781 192.632812 304.042969 196.765625 301.785156 200.679688 L 255.5625 280.9375 C 251.046875 288.765625 242.703125 292.964844 233.675781 292.964844 L 141.226562 292.964844 C 132.195312 292.964844 123.855469 288.554688 119.339844 280.726562 L 73.113281 200.988281 C 70.855469 197.078125 69.726562 192.632812 69.726562 187.917969 L 151.503906 187.917969 C 151.503906 188.589844 152.785156 191.683594 153.457031 192.84375 L 167.199219 216.886719 C 168.542969 219.214844 171.023438 220.242188 173.707031 220.242188 L 201.195312 220.242188 C 203.875 220.242188 207.304688 218.058594 208.644531 215.730469 L 222.390625 192.101562 C 223.058594 190.941406 223.398438 188.59375 223.398438 187.917969 Z M 305.175781 187.917969 " fill-opacity="1" fill-rule="nonzero"/></g><g clip-path="url(#9ab5485844)"><path fill="#3a5ea6" d="M 152.453125 187.917969 L 69.726562 187.917969 C 69.726562 183.203125 70.855469 179.324219 73.113281 175.410156 L 119.339844 95.410156 C 123.855469 87.582031 132.195312 82.195312 141.226562 82.195312 L 233.675781 82.195312 C 242.703125 82.195312 251.046875 87.367188 255.5625 95.191406 L 301.785156 175.6875 C 304.042969 179.605469 305.175781 183.203125 305.175781 187.914062 L 222.449219 187.914062 L 223.394531 187.914062 C 223.394531 186.566406 223.054688 185.6875 222.382812 184.527344 L 208.640625 161.074219 C 207.300781 158.746094 203.871094 156.265625 201.1875 156.265625 L 173.703125 156.265625 C 171.019531 156.265625 167.589844 158.535156 166.25 160.863281 L 152.507812 184.578125 C 151.835938 185.742188 151.496094 187.917969 151.496094 187.917969 Z M 223.398438 187.917969 C 223.398438 188.589844 223.058594 190.9375 222.390625 192.101562 L 208.644531 215.730469 C 207.304688 218.058594 203.875 220.242188 201.195312 220.242188 L 173.707031 220.242188 C 171.023438 220.242188 168.542969 219.214844 167.199219 216.886719 L 153.457031 192.84375 C 152.785156 191.683594 151.503906 188.589844 151.503906 187.917969 L 92.054688 187.917969 C 92.054688 191.285156 92.96875 195.421875 94.792969 198.59375 L 132.25 263.359375 C 135.90625 269.703125 142.667969 273.4375 149.984375 273.4375 L 224.902344 273.4375 C 232.214844 273.4375 238.976562 269.917969 242.636719 263.570312 L 280.089844 198.394531 C 281.921875 195.226562 282.832031 191.28125 282.832031 187.914062 L 223.398438 187.914062 Z M 223.398438 187.917969 " fill-opacity="1" fill-rule="nonzero"/></g><path fill="#2ea0d9" d="M 152.453125 187.917969 L 92.054688 187.917969 C 92.054688 184.550781 92.96875 181.199219 94.792969 178.027344 L 132.25 113.445312 C 135.90625 107.101562 142.667969 103.070312 149.984375 103.070312 L 224.902344 103.070312 C 232.214844 103.070312 238.976562 106.886719 242.636719 113.234375 L 280.089844 178.089844 C 281.921875 181.261719 282.832031 184.550781 282.832031 187.917969 L 222.449219 187.917969 L 223.394531 187.917969 C 223.394531 186.570312 223.054688 185.691406 222.382812 184.53125 L 208.640625 161.078125 C 207.300781 158.75 203.871094 156.269531 201.1875 156.269531 L 173.703125 156.269531 C 171.019531 156.269531 167.589844 158.539062 166.25 160.867188 L 152.507812 184.585938 C 151.835938 185.746094 151.496094 187.921875 151.496094 187.921875 L 152.453125 187.921875 Z M 222.449219 187.917969 C 222.449219 188.589844 222.109375 190.9375 221.441406 192.101562 L 207.695312 215.53125 C 206.355469 217.859375 203.871094 218.894531 201.1875 218.894531 L 173.703125 218.894531 C 171.019531 218.894531 168.535156 218.070312 167.195312 215.742188 L 153.449219 191.792969 C 152.78125 190.632812 152.441406 188.589844 152.441406 187.914062 L 125.652344 187.914062 C 125.652344 189.933594 126.242188 192.921875 127.429688 194.976562 L 151.691406 236.769531 C 154.0625 240.875 158.441406 243.128906 163.179688 243.128906 L 211.714844 243.128906 C 216.457031 243.128906 220.835938 241.085938 223.203125 236.976562 L 247.46875 194.730469 C 248.652344 192.675781 249.246094 189.933594 249.246094 187.914062 L 222.449219 187.914062 Z M 222.449219 187.917969 " fill-opacity="1" fill-rule="nonzero"/><path fill="#a1cbdb" d="M 249.246094 187.917969 L 222.453125 187.917969 C 222.453125 186.570312 222.113281 185.625 221.445312 184.460938 L 207.699219 160.941406 C 206.359375 158.613281 203.875 156.941406 201.195312 156.941406 L 173.707031 156.941406 C 171.023438 156.941406 168.542969 158.402344 167.199219 160.726562 L 153.457031 184.578125 C 152.785156 185.742188 152.449219 186.570312 152.449219 187.917969 L 125.65625 187.917969 C 125.65625 185.898438 126.246094 183.574219 127.433594 181.523438 L 151.699219 139.695312 C 154.066406 135.589844 158.445312 132.695312 163.183594 132.695312 L 211.714844 132.695312 C 216.457031 132.695312 220.835938 135.371094 223.203125 139.484375 L 247.46875 181.699219 C 248.652344 183.757812 249.246094 185.898438 249.246094 187.917969 Z M 249.246094 187.917969 " fill-opacity="1" fill-rule="nonzero"/></svg>